<?xml version="1.0" encoding="utf-8"?>
<svg xmlns="http://www.w3.org/2000/svg" xml:space="preserve" width="606.16" height="557.762" viewBox="395.689 57.875 606.16 557.762">
  <path d="m1001.841 414.803-10.008-.007-92.197-243.542c.471-.142.957-.202 1.408-.391 2.121-.916 3.906-2.371 5.186-3.92 1.422-1.724 2.357-3.489 3.07-5.24.27-.586.432-1.232.432-1.919 0-2.606-2.107-4.722-4.715-4.722-1.967 0-3.643 1.206-4.35 2.923-.525 1.017-1.105 1.906-1.725 2.512-1.232 1.158-1.967 1.313-3.51 1.131-3.252-.471-7.826-3.819-11.578-7.416-3.67-3.468-7.752-8.365-12.426-12.426-4.506-4.236-9.711-7.873-15.174-11.12-5.537-3.166-11.605-5.543-17.834-7.119-12.568-3.071-25.467-2.209-36.781.189-11.457 2.303-21.727 5.879-31.299 9.099-9.543 3.287-18.332 6.385-26.428 8.856-11.02 3.455-20.703 5.597-28.746 6.85V117.05c6.277-2.331 10.057-6.149 11.256-11.369 4.066-17.72-24.908-45.253-26.141-46.418l-1.508-1.387-1.496 1.408c-1.24 1.165-30.209 28.698-26.141 46.418 1.199 5.22 4.984 9.038 11.256 11.369v31.494c-8.043-1.253-17.729-3.395-28.754-6.85-8.096-2.479-16.887-5.57-26.424-8.857-9.578-3.219-19.848-6.795-31.306-9.099-11.314-2.391-24.213-3.253-36.78-.188-6.23 1.576-12.299 3.947-17.842 7.119-5.455 3.246-10.668 6.876-15.167 11.12-4.674 4.061-8.756 8.958-12.42 12.426-3.751 3.597-8.324 6.937-11.578 7.415-1.542.182-2.283.027-3.509-1.131-.613-.606-1.199-1.488-1.724-2.512-.707-1.71-2.384-2.923-4.351-2.923-2.606 0-4.714 2.108-4.714 4.721 0 .687.162 1.327.424 1.919.72 1.751 1.664 3.516 3.078 5.24 1.28 1.549 3.058 2.997 5.186 3.92.452.188.937.249 1.401.391l-92.204 243.521h-10.022l.007.007h-.007c0 15.201 5.099 50.958 107.755 50.958 102.65 0 107.749-35.764 107.749-50.958h-10.016l-92.446-244.175c1.697-.633 3.24-1.428 4.681-2.236 2.903-1.664 5.469-3.556 7.88-5.55 5.031-4.203 8.634-8.116 12.985-11.423 4.195-3.502 8.803-6.243 13.437-8.641 4.694-2.296 9.577-3.839 14.507-4.769 9.901-1.751 20.051-.559 29.864 2.162 9.813 2.6 19.33 6.546 28.469 10.285 9.162 3.805 17.998 7.557 26.418 10.715 8.412 3.186 16.408 5.765 23.662 7.712 4.209 1.091 8.121 1.96 11.754 2.667v257.308c-6.717.553-12.01 6.203-12.01 13.053 0 6.419 4.518 11.699 10.629 12.851v27.648c0 65.485-66.607 107.027-94.721 107.027-8.83 0-13.45 6.587-13.45 13.1 0 6.514 4.62 13.1 13.45 13.1h224.971c8.83 0 13.443-6.593 13.443-13.1 0-6.52-4.619-13.1-13.443-13.1-28.119 0-94.715-41.542-94.715-107.027v-27.648c6.102-1.145 10.635-6.432 10.635-12.851 0-6.856-5.301-12.5-12.016-13.053V171.55c3.631-.701 7.543-1.569 11.746-2.667 7.26-1.94 15.262-4.526 23.666-7.712 8.42-3.159 17.264-6.91 26.416-10.715 9.146-3.738 18.664-7.685 28.477-10.285 9.807-2.721 19.955-3.913 29.863-2.162 4.924.923 9.82 2.465 14.508 4.769 4.633 2.398 9.246 5.139 13.436 8.641 4.352 3.307 7.961 7.227 12.986 11.423 2.41 1.987 4.977 3.886 7.879 5.55 1.449.808 2.984 1.603 4.682 2.236L796.37 414.803h-10.022c0 15.201 5.105 50.958 107.756 50.958 102.643 0 107.748-35.764 107.748-50.958h-.011zm-586.788-.007 88.392-233.466 88.392 233.473-176.784-.007zm390.669.007 88.385-233.473 88.379 233.466-176.764.007z"/>
  <text font-family="'Arial-BoldMT'" font-size="33.6756" transform="translate(362.0142 774.5371)">Created by David</text>
  <text font-family="'Arial-BoldMT'" font-size="33.6756" transform="translate(362.0142 808.2129)">from the Noun Project</text>
</svg>